<?xml version="1.0" encoding="UTF-8"?>
<svg id="Layer_1" xmlns="http://www.w3.org/2000/svg" viewBox="0 0 225.01 194.94">
  <defs>
    <style>
      .cls-1 {
        fill: #fff;
      }
    </style>
  </defs>
  <path class="cls-1" d="M135.03,97.48c0,29.63,0,59.27-.01,88.9,0,1.07-.04,2.18-.33,3.2-1.42,4.97-7.17,6.94-11.51,3.94-5.6-3.86-11.15-7.78-16.72-11.68-18.38-12.86-36.75-25.72-55.11-38.61-.84-.59-1.66-.82-2.66-.81-8.68.03-17.36.05-26.03,0-11.31-.05-20.44-7.8-22.33-18.93-.22-1.29-.3-2.63-.3-3.94-.02-14.72-.02-29.43,0-44.15.01-13.06,9.88-22.94,22.93-22.97,8.68-.02,17.36.01,26.03-.03.74,0,1.59-.27,2.19-.69C74.99,35.08,98.81,18.41,122.61,1.73c2.84-1.99,5.74-2.37,8.75-.6,2.43,1.43,3.62,3.67,3.65,6.48.04,3.68.01,7.36.01,11.04,0,26.27,0,52.55,0,78.82ZM119.91,172.9V21.98c-.34.21-.54.32-.73.45-19.46,13.62-38.91,27.24-58.37,40.85-.59.41-.82.85-.82,1.57.01,21.75,0,43.51.04,65.26,0,.49.35,1.15.75,1.43,19.34,13.58,38.7,27.12,58.05,40.67.31.22.65.41,1.08.69ZM44.97,67.46c-.47,0-.79,0-1.11,0-7,0-13.99,0-20.99,0-4.68,0-7.84,3.15-7.84,7.82-.01,14.79-.01,29.58,0,44.37,0,4.63,3.23,7.81,7.88,7.81,6.92,0,13.83,0,20.75,0,.42,0,.85-.04,1.31-.06v-59.94Z"/>
  <path class="cls-1" d="M220.58,100.19c-.47,23.95-9.69,46.84-28.24,65.87-3.46,3.55-8.77,3.32-11.66-.44-2.31-3.01-2.03-7.08.77-9.94,3.79-3.87,7.24-8.01,10.23-12.52,8.26-12.49,12.93-26.21,13.62-41.17,1.12-24.21-6.85-45.06-23.67-62.51-4.27-4.43-2.68-11.26,3.05-12.83,2.91-.8,5.45-.01,7.57,2.13,7.29,7.36,13.3,15.64,17.95,24.91,6.93,13.83,10.32,28.5,10.39,46.5Z"/>
  <path class="cls-1" d="M179.18,98.9c-.58,17.91-6.91,33.33-19.33,46.2-2.26,2.34-5.08,2.74-8.09,1.97-2.63-.67-4.32-2.39-4.91-5.05-.63-2.79.15-5.2,2.17-7.24,5.42-5.49,9.64-11.79,12.05-19.12,6.69-20.42,2.75-38.62-11.81-54.46-2.73-2.97-3-7.13-.5-10.14,2.46-2.96,6.8-3.59,9.96-1.39.68.47,1.28,1.09,1.85,1.7,12.53,13.4,18.59,29.32,18.61,47.54Z"/>
</svg>