<?xml version="1.0" encoding="UTF-8"?>
<svg id="Layer_1" xmlns="http://www.w3.org/2000/svg" viewBox="0 0 225.01 194.94">
  <defs>
    <style>
      .cls-1 {
        fill: #fff;
      }
    </style>
  </defs>
  <path class="cls-1" d="M184.94,97.77c7.22,6.66,13.91,12.01,19.44,18.37,1.97,2.26,2.74,7.97,1.25,10.33-3.01,4.76-7.49,3.09-11.05-.69-5.66-5.99-11.39-11.91-19.48-20.36-6.02,7.12-11.4,13.61-16.93,19.98-3.24,3.73-7.08,5.74-11.33,1.61-4.2-4.08-2.55-7.86,1.19-11.33,6.03-5.6,11.99-11.27,20.11-18.91-7.29-6.37-13.67-11.91-20.01-17.5-3.78-3.34-5.56-7.16-1.38-11.32,4.19-4.17,7.92-2.2,11.36,1.42,5.66,5.95,11.38,11.84,18.22,18.93,6.11-6.45,11.52-12.15,16.92-17.86,3.65-3.87,7.55-7.5,12.58-2.28,4.59,4.77,1.3,8.52-2.33,11.98-5.73,5.44-11.44,10.88-18.55,17.64Z"/>
  <path class="cls-1" d="M135.03,97.48c0,29.63,0,59.27-.01,88.9,0,1.07-.04,2.18-.33,3.2-1.42,4.97-7.17,6.94-11.51,3.94-5.6-3.86-11.15-7.78-16.72-11.68-18.38-12.86-36.75-25.72-55.11-38.61-.84-.59-1.66-.82-2.66-.81-8.68.03-17.36.05-26.03,0-11.31-.05-20.44-7.8-22.33-18.93-.22-1.29-.3-2.63-.3-3.94-.02-14.72-.02-29.43,0-44.15.01-13.06,9.88-22.94,22.93-22.97,8.68-.02,17.36.01,26.03-.03.74,0,1.59-.27,2.19-.69C74.99,35.08,98.81,18.41,122.61,1.73c2.84-1.99,5.74-2.37,8.75-.6,2.43,1.43,3.62,3.67,3.65,6.48.04,3.68.01,7.36.01,11.04,0,26.27,0,52.55,0,78.82ZM119.91,172.9V21.98c-.34.21-.54.32-.73.45-19.46,13.62-38.91,27.24-58.37,40.85-.59.41-.82.85-.82,1.57.01,21.75,0,43.51.04,65.26,0,.49.35,1.15.75,1.43,19.34,13.58,38.7,27.12,58.05,40.67.31.22.65.41,1.08.69ZM44.97,67.46c-.47,0-.79,0-1.11,0-7,0-13.99,0-20.99,0-4.68,0-7.84,3.15-7.84,7.82-.01,14.79-.01,29.58,0,44.37,0,4.63,3.23,7.81,7.88,7.81,6.92,0,13.83,0,20.75,0,.42,0,.85-.04,1.31-.06v-59.94Z"/>
</svg>